<?xml version="1.0" encoding="UTF-8"?>
<svg id="Layer_1" data-name="Layer 1" xmlns="http://www.w3.org/2000/svg" viewBox="0 0 180.08 201.75">
  <defs>
    <style>
      .cls-1, .cls-2, .cls-3, .cls-4, .cls-5, .cls-6, .cls-7, .cls-8, .cls-9, .cls-10, .cls-11, .cls-12, .cls-13, .cls-14, .cls-15, .cls-16, .cls-17, .cls-18, .cls-19, .cls-20, .cls-21, .cls-22 {
        stroke-miterlimit: 10;
      }

      .cls-1, .cls-2, .cls-5, .cls-7, .cls-8, .cls-10, .cls-11, .cls-13, .cls-16, .cls-18 {
        stroke: #231f20;
      }

      .cls-1, .cls-23, .cls-8 {
        fill: #fff;
      }

      .cls-1, .cls-5, .cls-13, .cls-15, .cls-16, .cls-18, .cls-19 {
        stroke-width: 2px;
      }

      .cls-2, .cls-3, .cls-4, .cls-6, .cls-10, .cls-12, .cls-14, .cls-16, .cls-17, .cls-19, .cls-20, .cls-21, .cls-22 {
        fill: none;
      }

      .cls-3 {
        stroke: #163354;
      }

      .cls-3, .cls-4, .cls-6, .cls-7, .cls-10, .cls-14, .cls-20, .cls-21 {
        stroke-width: 3px;
      }

      .cls-4, .cls-9, .cls-12, .cls-22 {
        stroke: #183354;
      }

      .cls-5, .cls-7 {
        fill: #29548b;
      }

      .cls-24 {
        fill: #224571;
      }

      .cls-6 {
        stroke: #9c2c2e;
      }

      .cls-25 {
        fill: #3871b8;
      }

      .cls-9, .cls-26 {
        fill: #173354;
      }

      .cls-11, .cls-15 {
        fill: #231f20;
      }

      .cls-12 {
        stroke-width: 5px;
      }

      .cls-27 {
        fill: #4d81c2;
      }

      .cls-13 {
        fill: #183e6b;
      }

      .cls-14, .cls-19 {
        stroke: #acbbce;
      }

      .cls-28 {
        fill: #4c81c2;
      }

      .cls-15 {
        stroke: #882528;
      }

      .cls-17 {
        stroke: #376db0;
        stroke-width: 6px;
      }

      .cls-18 {
        fill: #c5363a;
      }

      .cls-29 {
        fill: #882529;
      }

      .cls-30 {
        fill: #183354;
      }

      .cls-31 {
        fill: #acbbce;
      }

      .cls-20 {
        stroke: #9c2b2e;
      }

      .cls-21 {
        stroke: #4d81c2;
      }

      .cls-22 {
        stroke-width: 4px;
      }
    </style>
  </defs>
  <path class="cls-12" d="m20.24,7.23s12.13,23.52,31.51,31.44"/>
  <path class="cls-7" d="m10.51,114.4s4.35-7.31,10.13-8.59c0,0-19.42,26.6,4.83,58.56,0,0-5.51-26.57,1.93-31.31,0,0-11.1,27.3,33.06,51.22,0,0-7.77-6.74-9.35-17.22,0,0,12.36,18.8,49.14,23.3,0,0-23.2-21.66-24.96-28.18,0,0,14.23,16.96,38.96,23.23,0,0-11.2-6.71-16.51-17.83,0,0,10.75,9.79,33.71,15.09,0,0-13.8-9.47-19.1-16.38l3.05,1.8c4.65,2.74,9.59,4.94,14.74,6.55l6.38,1.84c-16.84-17.64-21.18-31.77-21.18-31.77-.61-2.5,1.22-4.35,2.96-5.9,25.9-23.12,59.74-9.86,59.74-9.86-6.03-28.84-35.35-37.86-35.35-37.86-.04-.96-.05-1.82-.18-2.86-4.37-34.18-24.43-45.8-49.29-58.68-18.81-9.74-41.93-14.53-56.76-18.26-12.62-3.18-19.78-7.45-19.78-7.45,0,0,9.76,20.33,24.12,30.49,0,0-19.39-1.2-37.81-12.74,0,0,11.04,28.92,47.91,34.61,0,0-18.46.64-33.17-2.03,6.54,4.9,14.19,12.04,28.4,6.17,0,0-31.91,18.57-37.69,44.26,0,0,7.54-6.6,9.41-7.97,0,0-6.71,15.22-7.33,17.77Z"/>
  <path class="cls-12" d="m6.24,25.77s19.27,24.98,50.86,28.45"/>
  <path class="cls-26" d="m29.77,142.96c.98,5.87,1.6,12.78,17.77,26.38-1.37-3.59-2.54-8.04-2.54-12.76v-8.11s3.77,7.18,3.77,7.18c.15.29,12.76,24.57,44.29,29.83l3.03,2.75.86,2.82c-24.22-1.7-39.32-16.41-46.58-25.79,1.78,5.86,4.64,10.11,4.68,10.17l6.9,10.09-9.75-7.36c-21.45-14.47-25.86-30.31-27.94-38.01.02,2.93-.91,9.39-.53,11.05l-.64,8.09-2.98-6.54c-12.57-19.08-5.68-36.71-.29-45.71-1.02.81-2.11,1.83-3.2,3.14l-3.07-2.57c5.8-6.93,11.81-7.46,12.06-7.48l5.07-.38-3.44,3.73c-.72.79-15.64,17.41-8.26,38.17-.75-11.57,14.65-15.39,14.65-15.39,0,0-4.63,12.09-3.86,16.69Z"/>
  <path class="cls-17" d="m51.82,68.25c-15.83-.6-23.23,8.9-39.99,31.93"/>
  <path class="cls-27" d="m80.27,63.31c-1.67-2.01-1.71-3.66-1.73-4.76-.03-1.22-.08-3.49-21.92-13.48-2.2-1.01-7.99-2.82-14.7-4.93-7.22-2.26-16.21-5.08-24.65-8.11-6.93-2.48-12.08-7.87-12.29-8.1l.37-1.86,1.45.14-.9-.14s7.26,3.75,13.04,5.82c8.35,2.99,17.31,5.22,24.49,7.47,7.15,2.24,12.8,4.01,15.29,5.15,23.55,10.77,24.75,13.69,24.84,17.92.02.75.02,1,.58,1.67l-3.85,3.2Z"/>
  <path class="cls-12" d="m36.67,66.2s11.11.94,16.02,8.7"/>
  <path class="cls-3" d="m51.75,73.73s-16.47,12.3-20.23,21.08c0,0,7.4-4.32,11.92-4.24,0,0-13.5,19.32-9.89,28.66,0,0,2.11-6.83,9.81-11.02,0,0-8.21,25.19-.44,34.15,0,0,1.29-6.26,6.26-13.02,0,0,2.8,24.18,8.22,32.03l2.74-10.85h0s-.9,8.9,18.55,19.95c0,0,2.72,3.07,15.46,16"/>
  <path class="cls-21" d="m141.49,93.49s23.17,5.16,35,33.09"/>
  <path class="cls-28" d="m133.49,93.49h-1.04c2.49-.74,7.82-4.51,7.86-4.53l1.58,2.55c-.17.1-4.16,1.98-8.4,1.98Z"/>
  <path class="cls-10" d="m10.51,114.4s4.35-7.31,10.13-8.59c0,0-19.42,26.6,4.83,58.56,0,0-5.51-26.57,1.93-31.31,0,0-11.1,27.3,33.06,51.22,0,0-7.77-6.74-9.35-17.22,0,0,12.36,18.8,49.14,23.3,0,0-23.2-21.66-24.96-28.18,0,0,14.23,16.96,38.96,23.23,0,0-11.2-6.71-16.51-17.83,0,0,10.75,9.79,33.71,15.09,0,0-13.8-9.47-19.1-16.38l3.05,1.8c4.65,2.74,9.59,4.94,14.74,6.55l6.38,1.84c-16.84-17.64-21.18-31.77-21.18-31.77-.61-2.5,1.22-4.35,2.96-5.9,25.9-23.12,59.74-9.86,59.74-9.86-6.03-28.84-35.35-37.86-35.35-37.86-.04-.96-.05-1.82-.18-2.86-4.37-34.18-24.43-45.8-49.29-58.68-18.81-9.74-41.93-14.53-56.76-18.26-12.62-3.18-19.78-7.45-19.78-7.45,0,0,9.76,20.33,24.12,30.49,0,0-19.39-1.2-37.81-12.74,0,0,11.04,28.92,47.91,34.61,0,0-18.46.64-33.17-2.03,6.54,4.9,14.19,12.04,28.4,6.17,0,0-31.91,18.57-37.69,44.26,0,0,7.54-6.6,9.41-7.97,0,0-6.71,15.22-7.33,17.77Z"/>
  <path class="cls-18" d="m59.77,150.03s4.62,16.67,46.36,31.87l-7.4-10.34s20.7,5.76,29.74,9.2c0,0-10.59-5.74-13.7-12.52,0,0,20.21,7.78,21.76,8.23,0,0-24.18-27.9-23.62-33.78.56-5.88,11.89-11.77,11.89-11.77,0,0-17.26-44.04-28.67-50.01-11.4-5.98-38.11-9.06-38.11-9.06,0,0-17.05,10.5-24.1,21.28,0,0,7.84-4.41,11.87-4.33,0,0-14.46,20.53-12.03,29.32,0,0,2.38-7.54,10.32-10.56,0,0-7.37,24.51-1.42,33.25,0,0,1.09-6.51,7.02-12.64,0,0,2.59,24.31,7.59,31.53l2.52-9.67h0Z"/>
  <path class="cls-20" d="m66.56,69.85s-16.13,7.82-25.8,18.28c0,0,4.42-1.43,8.95-1.35,0,0-11.7,15.7-13.39,24.65,0,0,3.17-3.85,10.86-8.04,0,0-7.4,23.64-4.39,33.2,0,0,2.55-7.14,8.48-13.26,0,0,1.13,24.93,6.13,32.16l2.42-10.38.03-.14s3.51,19.46,42.42,33.38l-7.1-9.74s7.59,2.1,16.64,5.54"/>
  <path class="cls-16" d="m59.85,149.77s4.62,16.67,46.36,31.87l-7.4-10.34s20.7,5.76,29.74,9.2c0,0-10.59-5.74-13.7-12.52,0,0,20.21,7.78,21.76,8.23,0,0-24.18-27.9-23.62-33.78s11.89-11.77,11.89-11.77c0,0-17.26-44.04-28.67-50.01-11.4-5.98-38.11-9.06-38.11-9.06,0,0-17.05,10.5-24.1,21.28,0,0,7.84-4.41,11.87-4.33,0,0-14.46,20.53-12.03,29.32,0,0,2.38-7.54,10.32-10.56,0,0-7.37,24.51-1.42,33.25,0,0,1.09-6.51,7.02-12.64,0,0,2.59,24.31,7.59,31.53l2.52-9.67h0Z"/>
  <path class="cls-1" d="m68.65,58s-12.6,14.78-10.81,40.83l6.4-4.92s-9.1,23.65,5.15,48.1l4.3-7.38.03-1.17s-3.32,26.31,56.46,48.52l-12.14-11.67,16.06,4.33c-21.77-27.24-20.4-30.81-20.4-30.81,0,0,.89-4.52,14.17-11.93"/>
  <path class="cls-7" d="m142.69,91.09s-3.74,8.42-19.97,9.16c-16.23.74-23.34-1.48-23.34-1.48,0,0-9.86,7.75-17.97,12.91,0,0,11.88,3.39,14.93,20.56,0,0,7.23-8.91,7.98-9.22,0,0-2.05,11.42-.73,18.98,0,0,2.18-10.26,5.63-11.38,0,0,3.88,6.79,3.54,10.08,0,0,11.58-8.76,19.68-11.54"/>
  <path class="cls-4" d="m162.39,124.16s-29.17-3.24-49.62,15.65c0,0-1.96-8.31-2.4-10.37,0,0-2.47.75-3.21.66"/>
  <path class="cls-14" d="m74.4,59.46s-16.7,10.22-14.92,36.27l6.55-6.4s-8.82,25.41,3.51,50.31c0,0,2.77-6.82,5.64-9.76,0,0-5.57,25.26,50.03,49.11l-14.57-12.57,19.1,5.17c-21.77-27.24-18.12-28.66-18.12-28.66"/>
  <path class="cls-30" d="m88.45,110.46l-2.25-3.3c5.26-3.59,11.09-7.66,11.75-8.27l.7-.72.97.16c.17.02,17.41,3.45,27.56.73l.19,1.85c-9.69,2.6-23.68,1.92-27.41,1.49-2.22,1.7-7.92,5.62-11.5,8.06Z"/>
  <path class="cls-6" d="m64.05,66.62s-9.44,9.65-7.65,35.7l4.35-4.6s-8.06,19.9,9.14,47.69c0,0,.99-4.17,3.07-6.75,0,0,.71,12.52,26.39,29.72"/>
  <path class="cls-16" d="m68.65,58s-12.6,14.78-10.81,40.83l5.49-5.33s-8.19,24.05,6.06,48.51c0,0,2.25-5.98,4.33-8.55,0,0-3.32,26.31,56.46,48.52l-12.14-11.67,16.06,4.33c-21.77-27.24-20.4-30.81-20.4-30.81,0,0,.89-4.52,14.17-11.93"/>
  <path class="cls-19" d="m110.14,143.34c-.91-.03,1.91.48,1.1,5.92l-.96,2.02-.66-2.09c-.56-1.76-1.71-6.56-2.42-9.56-.83,2.37-1.87,6.46-2.63,10.12l-.78,3.74-1.15-3.64c-2.64-8.34-2.15-15.54-1.69-19.32-2.15,2.6-4.21,5.58-4.24,5.63l-1.51,2.51-.38-2.43c-3.48-19.49-14.74-23.78-15.29-23.93l1.24-.76c.58.16,10.9,3.7,15.25,22.33,1.39-2.14,3.62-5.29,5.55-6.74l2.34-1.75-.78,2.82c-.02.08-1.9,7.13.37,17.17,1.37-5.78,2.61-8.95,3.69-9.42l1.11-.49.27,1.18c.02.08,1.42,6.17,2.38,9.84"/>
  <path class="cls-14" d="m95.53,101.72c-29.83-3.86-15.52-22.19-15.52-22.19l-17.86-3.77"/>
  <path class="cls-10" d="m115.34,144.72c-.61-2.5,1.22-4.35,2.96-5.9,25.9-23.12,59.74-9.86,59.74-9.86-6.03-28.84-35.35-37.86-35.35-37.86"/>
  <ellipse class="cls-5" cx="91.51" cy="88" rx="11.32" ry="13.18" transform="translate(-21.37 146.11) rotate(-71.12)"/>
  <g>
    <circle class="cls-18" cx="94.4" cy="86.03" r="12.12"/>
    <ellipse class="cls-29" cx="89.5" cy="80.75" rx="6.88" ry="2.44" transform="translate(-16.86 24.01) rotate(-13.98)"/>
    <ellipse class="cls-29" cx="102.16" cy="94.41" rx="2.24" ry="5.38" transform="translate(-36.11 109.6) rotate(-49.01)"/>
    <circle class="cls-15" cx="93.41" cy="87.11" r="6.88"/>
    <circle class="cls-23" cx="90.97" cy="85.1" r="2.9"/>
    <circle class="cls-16" cx="94.4" cy="86.03" r="12.12"/>
  </g>
  <path class="cls-8" d="m141.09,89.63s-.09-1.85-8.59-1.28c-1.73.12-3.81.33-6.31.69-14.76,2.09-23.81-36.74-68.54-49.69,0,0,12.72,7.1,26.61,20.22,23.98,22.64,13.55,21.03,29.33,32.53,0,0,3.6,2.26,5.42,1.74.68-.2,2.3-2.24,4.74-3.41,4.11-1.97,10.39-3.11,17.33-.78Z"/>
  <path class="cls-25" d="m60.15,28.75c-1.18-.58,3.95.86,5.18,1.22,18.28,5.31,39.13,18.72,55.73,37.09,0,0-31.57-23.9-60.91-38.31Z"/>
  <path class="cls-9" d="m176.99,129.16c-7.11-3.86-26.77-10.6-33.85-8.39l-.31.1-.33-.04c-1.21-.16-29.76-3.9-38.4-7.75-2.63-1.17-14.61.34-21.81-.24l-1.15-.95c3.29-.59,19.93-3.44,24.18-1.55,7.78,3.46,34.11,7.05,37.26,7.47,9.79-2.61,32.29,9.4,34.99,10.86l-.58.49Z"/>
  <path class="cls-11" d="m42.85,52.95c21.64-2.7,53.48,21.25,53.48,21.25-2.12-.83-16.31-18.14-16.31-18.14l19.36,19.92s2.51,4.59,5.83,9.88c4.27,6.8,10.13,14.66,16.33,14.44,0,0-11.46-1.75-20.87-.93,0,0,1.42-7.67-3.96-14.27l-13.51-5.24-40.35-26.9Z"/>
  <path class="cls-13" d="m66.16,44.38s-3.38-3.53-13.05-6.73c0,0,24.22,14.28,28.37,21.96,0,0-28.22-19.31-47.69-21.81,0,0,20.78,8.96,24.3,17.41,0,0,27.51,8.4,32.42,13.89,0,0-4.24-7.62-24.36-24.72Z"/>
  <path class="cls-11" d="m42.85,52.95s1.55,4.86,3.25,6.4c2.47,2.24-14.58,6.07-14.58,6.07,0,0,21.93,2.9,18.4,2.23-1.71-.32-3.82,0-3.82,0,0,0,2.34.71,3.59,3.57,0,0-3.27.77-6.84,1.4,0,0,36.67,3.96,39.96,8.7l2.73-4.12s-10.3-12.12-8.6-7.16"/>
  <path class="cls-8" d="m64.51,64.01s-17.02-3.07-18.41-3.25c0,0,23.46,10.6,24.22,11.96.34.61,6.02,2.53,6.02,2.53,0,0-.96,2.22,10.07,1.94,0,0-8.16-4.72-9.7-5.94,0,0,11.18,3.35,15.02,5.37,0,0-4.93-4.65-5.11-4.87l12.1,7.33c-4.28-9.15-22.33-17.62-22.33-17.62,1.39,1.29,2.03,2.93,2.03,2.93-3.92-3.44-19.47-8.18-19.47-8.18.2.19,6.98,5.81,6.98,5.81,0,0-12.98-2.9-13.8-2.92,0,0,11.68,4.43,12.38,4.91Z"/>
  <path class="cls-8" d="m64.41,64.45s-17.02-3.07-18.41-3.25c0,0,21.64,10.82,24.22,11.96.64.28,19.09,5.8,19.09,5.8,0,0-23.81-6.02-17.3-4.33,5.97,1.55,15.26,5.01,19.49,6.13,0,0-13.36-7.84-14.89-9.06,0,0,11.18,3.35,15.02,5.37,0,0-4.93-4.65-5.11-4.87l12.1,7.33c-4.28-9.15-22.33-17.62-22.33-17.62,1.39,1.29,2.03,2.93,2.03,2.93-3.92-3.44-19.47-8.18-19.47-8.18.2.19,6.98,5.81,6.98,5.81,0,0-12.98-2.9-13.8-2.92,0,0,11.68,4.43,12.38,4.91Z"/>
  <path class="cls-22" d="m107.15,130.1l1-7.07s-2.02,1.5-2.81,1.54c0,0-.33-1.06-.63-2.32l-7.01,7.09c.35-10.51-12.54-17.21-12.54-17.21,0,0,13.77-3.15,18.43-1.4"/>
  <path class="cls-11" d="m111.17,97.09l4.32-1.37,15.07-1.36c-4.77,4.88-17.2,5.3-17.2,5.3"/>
  <path class="cls-11" d="m109.26,96.43l4.21-1.68,14.94-2.47c-4.4,5.22-16.76,6.55-16.76,6.55"/>
  <path class="cls-11" d="m102.83,86.47l4.31,1.49,13.07,8.13c-6.72,1.23-17.08-6.07-17.08-6.07"/>
  <path class="cls-11" d="m104.42,138.67l1.71-3.57,2.03-12.08c-5.02,2.82-5.9,12.74-5.9,12.74"/>
  <path class="cls-10" d="m103.59,142.01s1.6-6.68,5.05-7.8c0,0,2.04,9.63,2.53,11.21"/>
  <path class="cls-10" d="m142.69,91.09s-3.74,8.42-19.97,9.16c-16.23.74-23.34-1.48-23.34-1.48,0,0-9.86,7.75-17.97,12.91,0,0,11.88,3.39,14.93,20.56"/>
  <path class="cls-10" d="m81.4,111.69s19.27-3.45,23.31-1.65c8.54,3.8,37.98,7.63,37.98,7.63,9.25-2.89,35.35,11.29,35.35,11.29"/>
  <path class="cls-11" d="m120.41,93.03l7.63-1.53,11.4-1.8c-5.52-1.91-15.42.58-15.42.58"/>
  <path class="cls-24" d="m40.42,29.33c-.83.07,2.47-.74,3.27-.93,11.8-2.78,24.3,1.31,37.68,7.19,0,0-20.42-7.9-40.94-6.27Z"/>
  <path class="cls-31" d="m92.52,81.29l-8.99-3.33c-23.66-8.77-33.62-14.47-33.72-14.53l-5.1-2.95,5.78,1.1c5.15.98,7.2,1.72,8.32,1.87l7.75,1.9c-.79-.1-5.27-.14-9.51-.5,3.9,1.85,9.73,4.45,17.74,7.62l-9.5-5.99,19.64,5.97c-.45-.72-.64-1.06-.65-1.08l-1.45-2.6,2.73,1.2c.17.08.89.47,1.89,1.04-3.34-2.35-7.63-5.36-10.56-7.19l1.55-1.16c2.86,1.78,17.2,10.8,18.61,14.09l1.19,2.77-2.61-1.51c-2.21-1.28-5.22-3.01-7.52-4.33l1.52,2.29-10.7-3.25,13.59,8.57Z"/>
  <path class="cls-2" d="m64.41,64.45s-17.02-3.07-18.41-3.25c0,0,21.64,10.82,24.22,11.96.64.28,19.09,5.8,19.09,5.8,0,0-23.81-6.02-17.3-4.33,5.97,1.55,15.26,5.01,19.49,6.13,0,0-13.36-7.84-14.89-9.06,0,0,11.18,3.35,15.02,5.37,0,0-4.93-4.65-5.11-4.87l12.1,7.33c-4.28-9.15-22.33-17.62-22.33-17.62,1.39,1.29,2.03,2.93,2.03,2.93-3.92-3.44-19.47-8.18-19.47-8.18.2.19,6.98,5.81,6.98,5.81,0,0-12.98-2.9-13.8-2.92,0,0,11.68,4.43,12.38,4.91Z"/>
  <path class="cls-24" d="m119.04,106.59c-.84.03,2.49-.71,3.28-.88,11.89-2.55,24.83,2.68,38.76,9.98,0,0-21.2-9.92-42.04-9.1Z"/>
  <path class="cls-21" d="m16.68,3.84s13.81,8.78,35.28,13.54c34.56,7.67,84.14,30.9,90.55,70.86"/>
  <path class="cls-10" d="m178.04,128.95c-6.03-28.84-35.35-37.86-35.35-37.86-.04-.96-.05-1.82-.18-2.86-4.37-34.18-24.43-45.8-49.29-58.68-18.81-9.74-41.93-14.53-56.76-18.26-12.62-3.18-19.78-7.45-19.78-7.45,0,0,9.76,20.33,24.12,30.49,0,0-19.39-1.2-37.81-12.74,0,0,11.04,28.92,47.91,34.61,0,0-18.46.64-33.17-2.03,6.54,4.9,14.19,12.04,28.4,6.17,0,0-31.91,18.57-37.69,44.26,0,0,7.54-6.6,9.41-7.97,0,0-6.71,15.22-7.33,17.77,0,0,4.35-7.31,10.13-8.59,0,0-19.42,26.6,4.83,58.56,0,0-5.51-26.57,1.93-31.31,0,0-11.1,27.3,33.06,51.22,0,0-7.77-6.74-9.35-17.22,0,0,12.36,18.8,49.14,23.3"/>
  <path class="cls-10" d="m142.69,91.09s-3.74,8.42-19.97,9.16c-16.23.74-23.34-1.48-23.34-1.48,0,0-9.86,7.75-17.97,12.91,0,0,11.88,3.39,14.93,20.56,0,0,6.27-6.94,6.98-7.54,0,0-1.05,9.74.27,17.3,0,0,1.38-8.06,4.83-9.18,0,0,2.06,11.21,2.55,12.78,0,0,8.05-8.56,15.87-13.03"/>
  <path class="cls-10" d="m142.69,91.09s-3.74,8.42-19.97,9.16c-16.23.74-23.34-1.48-23.34-1.48,0,0-9.86,7.75-17.97,12.91,0,0,11.88,3.39,14.93,20.56,0,0,6.4-7.4,7.09-8.01,0,0-1.16,10.21.17,17.77"/>
</svg>